<mxfile host="app.diagrams.net" modified="2022-10-03T10:01:45.571Z" agent="5.0 (Macintosh; Intel Mac OS X 10_15_7) AppleWebKit/605.1.15 (KHTML, like Gecko) Version/16.1 Safari/605.1.15" etag="lP0DmYnmL-kJ5BssLbpg" version="20.4.0" type="github" pages="4">
  <diagram id="8JwmmRrR1gZthdUnmFxn" name="Tiket">
    <mxGraphModel dx="891" dy="716" grid="1" gridSize="10" guides="1" tooltips="1" connect="1" arrows="1" fold="1" page="1" pageScale="1" pageWidth="827" pageHeight="1169" math="0" shadow="0">
      <root>
        <mxCell id="0" />
        <mxCell id="1" parent="0" />
        <mxCell id="h5qomxZ0ZPLSRLewRgUK-3" style="edgeStyle=orthogonalEdgeStyle;rounded=0;orthogonalLoop=1;jettySize=auto;html=1;exitX=0.5;exitY=1;exitDx=0;exitDy=0;entryX=0.5;entryY=0;entryDx=0;entryDy=0;" edge="1" parent="1" source="b-ersjFqIPHCU9zJTxq0-1" target="h5qomxZ0ZPLSRLewRgUK-1">
          <mxGeometry relative="1" as="geometry" />
        </mxCell>
        <mxCell id="b-ersjFqIPHCU9zJTxq0-1" value="Start" style="rounded=1;whiteSpace=wrap;html=1;" vertex="1" parent="1">
          <mxGeometry x="70" y="70" width="120" height="60" as="geometry" />
        </mxCell>
        <mxCell id="h5qomxZ0ZPLSRLewRgUK-4" style="edgeStyle=orthogonalEdgeStyle;rounded=0;orthogonalLoop=1;jettySize=auto;html=1;exitX=0.5;exitY=1;exitDx=0;exitDy=0;entryX=0.5;entryY=0;entryDx=0;entryDy=0;" edge="1" parent="1" source="h5qomxZ0ZPLSRLewRgUK-1" target="h5qomxZ0ZPLSRLewRgUK-2">
          <mxGeometry relative="1" as="geometry" />
        </mxCell>
        <mxCell id="h5qomxZ0ZPLSRLewRgUK-6" style="edgeStyle=orthogonalEdgeStyle;rounded=0;orthogonalLoop=1;jettySize=auto;html=1;exitX=1;exitY=0.5;exitDx=0;exitDy=0;entryX=0;entryY=0.5;entryDx=0;entryDy=0;" edge="1" parent="1" source="h5qomxZ0ZPLSRLewRgUK-1" target="h5qomxZ0ZPLSRLewRgUK-5">
          <mxGeometry relative="1" as="geometry" />
        </mxCell>
        <mxCell id="h5qomxZ0ZPLSRLewRgUK-1" value="Beli Tiket" style="rhombus;whiteSpace=wrap;html=1;" vertex="1" parent="1">
          <mxGeometry x="90" y="190" width="80" height="80" as="geometry" />
        </mxCell>
        <mxCell id="VzMKdhuZj60koKlnk4Jn-10" style="edgeStyle=orthogonalEdgeStyle;rounded=0;orthogonalLoop=1;jettySize=auto;html=1;exitX=1;exitY=0.5;exitDx=0;exitDy=0;entryX=0;entryY=0.5;entryDx=0;entryDy=0;" edge="1" parent="1" source="h5qomxZ0ZPLSRLewRgUK-2" target="VzMKdhuZj60koKlnk4Jn-8">
          <mxGeometry relative="1" as="geometry" />
        </mxCell>
        <mxCell id="VzMKdhuZj60koKlnk4Jn-17" style="edgeStyle=orthogonalEdgeStyle;rounded=0;orthogonalLoop=1;jettySize=auto;html=1;exitX=0.5;exitY=1;exitDx=0;exitDy=0;entryX=0.5;entryY=0;entryDx=0;entryDy=0;" edge="1" parent="1" source="h5qomxZ0ZPLSRLewRgUK-2" target="ByAN-Y68qzVihHIGTpfn-11">
          <mxGeometry relative="1" as="geometry" />
        </mxCell>
        <mxCell id="h5qomxZ0ZPLSRLewRgUK-2" value="Refund Tiket" style="rhombus;whiteSpace=wrap;html=1;" vertex="1" parent="1">
          <mxGeometry x="90" y="430" width="80" height="80" as="geometry" />
        </mxCell>
        <mxCell id="h5qomxZ0ZPLSRLewRgUK-8" style="edgeStyle=orthogonalEdgeStyle;rounded=0;orthogonalLoop=1;jettySize=auto;html=1;exitX=1;exitY=0.5;exitDx=0;exitDy=0;entryX=0;entryY=0.5;entryDx=0;entryDy=0;" edge="1" parent="1" source="h5qomxZ0ZPLSRLewRgUK-5" target="h5qomxZ0ZPLSRLewRgUK-7">
          <mxGeometry relative="1" as="geometry" />
        </mxCell>
        <mxCell id="h5qomxZ0ZPLSRLewRgUK-5" value="Pilih jumlah / paket Tiket" style="shape=parallelogram;perimeter=parallelogramPerimeter;whiteSpace=wrap;html=1;fixedSize=1;" vertex="1" parent="1">
          <mxGeometry x="230" y="200" width="120" height="60" as="geometry" />
        </mxCell>
        <mxCell id="ByAN-Y68qzVihHIGTpfn-8" style="edgeStyle=orthogonalEdgeStyle;rounded=0;orthogonalLoop=1;jettySize=auto;html=1;exitX=1;exitY=0.5;exitDx=0;exitDy=0;entryX=0;entryY=0.5;entryDx=0;entryDy=0;" edge="1" parent="1" source="h5qomxZ0ZPLSRLewRgUK-7" target="ByAN-Y68qzVihHIGTpfn-2">
          <mxGeometry relative="1" as="geometry" />
        </mxCell>
        <mxCell id="h5qomxZ0ZPLSRLewRgUK-7" value="Melakukan Pembayaran batas maksimal 12 jam" style="rounded=0;whiteSpace=wrap;html=1;" vertex="1" parent="1">
          <mxGeometry x="390" y="200" width="120" height="60" as="geometry" />
        </mxCell>
        <mxCell id="ByAN-Y68qzVihHIGTpfn-10" style="edgeStyle=orthogonalEdgeStyle;rounded=0;orthogonalLoop=1;jettySize=auto;html=1;exitX=1;exitY=0.5;exitDx=0;exitDy=0;entryX=0;entryY=0.5;entryDx=0;entryDy=0;" edge="1" parent="1" source="ByAN-Y68qzVihHIGTpfn-2" target="ByAN-Y68qzVihHIGTpfn-9">
          <mxGeometry relative="1" as="geometry" />
        </mxCell>
        <mxCell id="VzMKdhuZj60koKlnk4Jn-2" style="edgeStyle=orthogonalEdgeStyle;rounded=0;orthogonalLoop=1;jettySize=auto;html=1;exitX=0.5;exitY=1;exitDx=0;exitDy=0;entryX=0.5;entryY=0;entryDx=0;entryDy=0;" edge="1" parent="1" source="ByAN-Y68qzVihHIGTpfn-2" target="ByAN-Y68qzVihHIGTpfn-5">
          <mxGeometry relative="1" as="geometry" />
        </mxCell>
        <mxCell id="ByAN-Y68qzVihHIGTpfn-2" value="Pembeli sudah melakukan pembayaran" style="rhombus;whiteSpace=wrap;html=1;" vertex="1" parent="1">
          <mxGeometry x="570" y="190" width="80" height="80" as="geometry" />
        </mxCell>
        <mxCell id="VzMKdhuZj60koKlnk4Jn-3" style="edgeStyle=orthogonalEdgeStyle;rounded=0;orthogonalLoop=1;jettySize=auto;html=1;exitX=1;exitY=0.5;exitDx=0;exitDy=0;entryX=0;entryY=0.5;entryDx=0;entryDy=0;" edge="1" parent="1" source="ByAN-Y68qzVihHIGTpfn-5" target="VzMKdhuZj60koKlnk4Jn-1">
          <mxGeometry relative="1" as="geometry" />
        </mxCell>
        <mxCell id="ByAN-Y68qzVihHIGTpfn-5" value="Batas Pembayaran melebihi 12 jam" style="rhombus;whiteSpace=wrap;html=1;" vertex="1" parent="1">
          <mxGeometry x="570" y="300" width="80" height="80" as="geometry" />
        </mxCell>
        <mxCell id="VzMKdhuZj60koKlnk4Jn-5" style="edgeStyle=orthogonalEdgeStyle;rounded=0;orthogonalLoop=1;jettySize=auto;html=1;exitX=1;exitY=0.5;exitDx=0;exitDy=0;entryX=1;entryY=0.5;entryDx=0;entryDy=0;" edge="1" parent="1" source="ByAN-Y68qzVihHIGTpfn-9" target="ByAN-Y68qzVihHIGTpfn-11">
          <mxGeometry relative="1" as="geometry">
            <mxPoint x="190" y="520" as="targetPoint" />
            <Array as="points">
              <mxPoint x="850" y="230" />
              <mxPoint x="850" y="730" />
            </Array>
          </mxGeometry>
        </mxCell>
        <mxCell id="ByAN-Y68qzVihHIGTpfn-9" value="Tiket masuk ke dalam akun ( masa kadaluarsa akun 3 bulan setelah tanggal pembelian )" style="rounded=0;whiteSpace=wrap;html=1;" vertex="1" parent="1">
          <mxGeometry x="690" y="195" width="140" height="70" as="geometry" />
        </mxCell>
        <mxCell id="ByAN-Y68qzVihHIGTpfn-11" value="End" style="rounded=1;whiteSpace=wrap;html=1;" vertex="1" parent="1">
          <mxGeometry x="70" y="700" width="120" height="60" as="geometry" />
        </mxCell>
        <mxCell id="VzMKdhuZj60koKlnk4Jn-4" style="edgeStyle=orthogonalEdgeStyle;rounded=0;orthogonalLoop=1;jettySize=auto;html=1;exitX=1;exitY=0.5;exitDx=0;exitDy=0;entryX=1;entryY=0.5;entryDx=0;entryDy=0;" edge="1" parent="1" source="VzMKdhuZj60koKlnk4Jn-1" target="ByAN-Y68qzVihHIGTpfn-11">
          <mxGeometry relative="1" as="geometry" />
        </mxCell>
        <mxCell id="VzMKdhuZj60koKlnk4Jn-1" value="Transaksi Batal / Kadaluarsa" style="rounded=0;whiteSpace=wrap;html=1;" vertex="1" parent="1">
          <mxGeometry x="690" y="310" width="140" height="60" as="geometry" />
        </mxCell>
        <mxCell id="VzMKdhuZj60koKlnk4Jn-12" style="edgeStyle=orthogonalEdgeStyle;rounded=0;orthogonalLoop=1;jettySize=auto;html=1;exitX=1;exitY=0.5;exitDx=0;exitDy=0;entryX=0;entryY=0.5;entryDx=0;entryDy=0;" edge="1" parent="1" source="VzMKdhuZj60koKlnk4Jn-8">
          <mxGeometry relative="1" as="geometry">
            <mxPoint x="380" y="470" as="targetPoint" />
          </mxGeometry>
        </mxCell>
        <mxCell id="VzMKdhuZj60koKlnk4Jn-8" value="Pilih jumlah tiket yang di miliki untuk di refund&amp;nbsp;" style="shape=parallelogram;perimeter=parallelogramPerimeter;whiteSpace=wrap;html=1;fixedSize=1;" vertex="1" parent="1">
          <mxGeometry x="220" y="440" width="120" height="60" as="geometry" />
        </mxCell>
        <mxCell id="VzMKdhuZj60koKlnk4Jn-15" style="edgeStyle=orthogonalEdgeStyle;rounded=0;orthogonalLoop=1;jettySize=auto;html=1;exitX=1;exitY=0.5;exitDx=0;exitDy=0;entryX=0;entryY=0.5;entryDx=0;entryDy=0;" edge="1" parent="1" source="VzMKdhuZj60koKlnk4Jn-13" target="VzMKdhuZj60koKlnk4Jn-14">
          <mxGeometry relative="1" as="geometry" />
        </mxCell>
        <mxCell id="VzMKdhuZj60koKlnk4Jn-13" value="Pilih rekening user untuk melakuan pencairan uang" style="shape=parallelogram;perimeter=parallelogramPerimeter;whiteSpace=wrap;html=1;fixedSize=1;" vertex="1" parent="1">
          <mxGeometry x="370" y="440" width="120" height="60" as="geometry" />
        </mxCell>
        <mxCell id="VzMKdhuZj60koKlnk4Jn-16" style="edgeStyle=orthogonalEdgeStyle;rounded=0;orthogonalLoop=1;jettySize=auto;html=1;exitX=1;exitY=0.5;exitDx=0;exitDy=0;entryX=1;entryY=0.5;entryDx=0;entryDy=0;" edge="1" parent="1" source="VzMKdhuZj60koKlnk4Jn-14" target="ByAN-Y68qzVihHIGTpfn-11">
          <mxGeometry relative="1" as="geometry" />
        </mxCell>
        <mxCell id="VzMKdhuZj60koKlnk4Jn-14" value="Transfer akan di proses 1x24 jam sesuai dengan nominal pembelian tiket&amp;nbsp;" style="rounded=0;whiteSpace=wrap;html=1;" vertex="1" parent="1">
          <mxGeometry x="520" y="440" width="120" height="60" as="geometry" />
        </mxCell>
      </root>
    </mxGraphModel>
  </diagram>
  <diagram id="UsRWPRpF3DMew7u_Lx2K" name="Tawar Bersama">
    <mxGraphModel dx="1048" dy="2011" grid="1" gridSize="10" guides="1" tooltips="1" connect="1" arrows="1" fold="1" page="1" pageScale="1" pageWidth="827" pageHeight="1169" math="0" shadow="0">
      <root>
        <mxCell id="0" />
        <mxCell id="1" parent="0" />
        <mxCell id="llBoBKPekiVO47sFlb99-7" style="edgeStyle=orthogonalEdgeStyle;rounded=0;orthogonalLoop=1;jettySize=auto;html=1;exitX=1;exitY=0.5;exitDx=0;exitDy=0;entryX=0;entryY=0.5;entryDx=0;entryDy=0;" edge="1" parent="1" source="llBoBKPekiVO47sFlb99-2" target="llBoBKPekiVO47sFlb99-4">
          <mxGeometry relative="1" as="geometry" />
        </mxCell>
        <mxCell id="llBoBKPekiVO47sFlb99-2" value="IKUT TB" style="rounded=0;whiteSpace=wrap;html=1;" vertex="1" parent="1">
          <mxGeometry x="50" y="240" width="120" height="60" as="geometry" />
        </mxCell>
        <mxCell id="llBoBKPekiVO47sFlb99-11" style="edgeStyle=orthogonalEdgeStyle;rounded=0;orthogonalLoop=1;jettySize=auto;html=1;exitX=0.5;exitY=1;exitDx=0;exitDy=0;entryX=0.5;entryY=0;entryDx=0;entryDy=0;" edge="1" parent="1" source="llBoBKPekiVO47sFlb99-3" target="llBoBKPekiVO47sFlb99-2">
          <mxGeometry relative="1" as="geometry" />
        </mxCell>
        <mxCell id="llBoBKPekiVO47sFlb99-3" value="START" style="rounded=1;whiteSpace=wrap;html=1;" vertex="1" parent="1">
          <mxGeometry x="50" y="80" width="120" height="60" as="geometry" />
        </mxCell>
        <mxCell id="llBoBKPekiVO47sFlb99-6" style="edgeStyle=orthogonalEdgeStyle;rounded=0;orthogonalLoop=1;jettySize=auto;html=1;exitX=0.5;exitY=0;exitDx=0;exitDy=0;entryX=0;entryY=0.5;entryDx=0;entryDy=0;" edge="1" parent="1" source="llBoBKPekiVO47sFlb99-4" target="llBoBKPekiVO47sFlb99-5">
          <mxGeometry relative="1" as="geometry" />
        </mxCell>
        <mxCell id="llBoBKPekiVO47sFlb99-9" style="edgeStyle=orthogonalEdgeStyle;rounded=0;orthogonalLoop=1;jettySize=auto;html=1;exitX=1;exitY=0.5;exitDx=0;exitDy=0;entryX=0;entryY=0.5;entryDx=0;entryDy=0;" edge="1" parent="1" source="llBoBKPekiVO47sFlb99-4" target="llBoBKPekiVO47sFlb99-8">
          <mxGeometry relative="1" as="geometry" />
        </mxCell>
        <mxCell id="llBoBKPekiVO47sFlb99-4" value="Pakai Tiket" style="rhombus;whiteSpace=wrap;html=1;" vertex="1" parent="1">
          <mxGeometry x="260" y="230" width="80" height="80" as="geometry" />
        </mxCell>
        <mxCell id="llBoBKPekiVO47sFlb99-13" style="edgeStyle=orthogonalEdgeStyle;rounded=0;orthogonalLoop=1;jettySize=auto;html=1;exitX=0.5;exitY=0;exitDx=0;exitDy=0;entryX=0.5;entryY=1;entryDx=0;entryDy=0;" edge="1" parent="1" source="llBoBKPekiVO47sFlb99-5" target="llBoBKPekiVO47sFlb99-12">
          <mxGeometry relative="1" as="geometry" />
        </mxCell>
        <mxCell id="llBoBKPekiVO47sFlb99-15" style="edgeStyle=orthogonalEdgeStyle;rounded=0;orthogonalLoop=1;jettySize=auto;html=1;exitX=1;exitY=0.5;exitDx=0;exitDy=0;entryX=0;entryY=0.5;entryDx=0;entryDy=0;" edge="1" parent="1" source="llBoBKPekiVO47sFlb99-5" target="llBoBKPekiVO47sFlb99-14">
          <mxGeometry relative="1" as="geometry" />
        </mxCell>
        <mxCell id="llBoBKPekiVO47sFlb99-5" value="Memiliki Tiket / Tiket cukup" style="rhombus;whiteSpace=wrap;html=1;" vertex="1" parent="1">
          <mxGeometry x="374" y="100" width="80" height="80" as="geometry" />
        </mxCell>
        <mxCell id="llBoBKPekiVO47sFlb99-18" style="edgeStyle=orthogonalEdgeStyle;rounded=0;orthogonalLoop=1;jettySize=auto;html=1;exitX=1;exitY=0.5;exitDx=0;exitDy=0;entryX=0;entryY=0.5;entryDx=0;entryDy=0;" edge="1" parent="1" source="llBoBKPekiVO47sFlb99-8" target="llBoBKPekiVO47sFlb99-17">
          <mxGeometry relative="1" as="geometry" />
        </mxCell>
        <mxCell id="llBoBKPekiVO47sFlb99-8" value="AKTIVITAS TB" style="rounded=0;whiteSpace=wrap;html=1;" vertex="1" parent="1">
          <mxGeometry x="550" y="240" width="120" height="60" as="geometry" />
        </mxCell>
        <mxCell id="llBoBKPekiVO47sFlb99-12" value="Membeli Tiket" style="ellipse;whiteSpace=wrap;html=1;aspect=fixed;" vertex="1" parent="1">
          <mxGeometry x="374" y="-20" width="80" height="80" as="geometry" />
        </mxCell>
        <mxCell id="llBoBKPekiVO47sFlb99-16" style="edgeStyle=orthogonalEdgeStyle;rounded=0;orthogonalLoop=1;jettySize=auto;html=1;exitX=0.5;exitY=1;exitDx=0;exitDy=0;entryX=0.5;entryY=0;entryDx=0;entryDy=0;" edge="1" parent="1" source="llBoBKPekiVO47sFlb99-14" target="llBoBKPekiVO47sFlb99-8">
          <mxGeometry relative="1" as="geometry" />
        </mxCell>
        <mxCell id="llBoBKPekiVO47sFlb99-14" value="Deposit Tiket di ambil sesuai jumlah yang di butuhkan" style="rounded=0;whiteSpace=wrap;html=1;" vertex="1" parent="1">
          <mxGeometry x="550" y="110" width="120" height="60" as="geometry" />
        </mxCell>
        <mxCell id="llBoBKPekiVO47sFlb99-20" style="edgeStyle=orthogonalEdgeStyle;rounded=0;orthogonalLoop=1;jettySize=auto;html=1;exitX=0.5;exitY=1;exitDx=0;exitDy=0;entryX=0.5;entryY=0;entryDx=0;entryDy=0;" edge="1" parent="1" source="llBoBKPekiVO47sFlb99-17" target="llBoBKPekiVO47sFlb99-19">
          <mxGeometry relative="1" as="geometry" />
        </mxCell>
        <mxCell id="llBoBKPekiVO47sFlb99-17" value="TB Selesai" style="rounded=0;whiteSpace=wrap;html=1;" vertex="1" parent="1">
          <mxGeometry x="730" y="240" width="120" height="60" as="geometry" />
        </mxCell>
        <mxCell id="llBoBKPekiVO47sFlb99-22" style="edgeStyle=orthogonalEdgeStyle;rounded=0;orthogonalLoop=1;jettySize=auto;html=1;exitX=1;exitY=0.5;exitDx=0;exitDy=0;entryX=0;entryY=0.5;entryDx=0;entryDy=0;" edge="1" parent="1" source="llBoBKPekiVO47sFlb99-19" target="llBoBKPekiVO47sFlb99-21">
          <mxGeometry relative="1" as="geometry" />
        </mxCell>
        <mxCell id="llBoBKPekiVO47sFlb99-28" style="edgeStyle=orthogonalEdgeStyle;rounded=0;orthogonalLoop=1;jettySize=auto;html=1;exitX=0;exitY=0.5;exitDx=0;exitDy=0;entryX=1;entryY=0.5;entryDx=0;entryDy=0;" edge="1" parent="1" source="llBoBKPekiVO47sFlb99-19" target="llBoBKPekiVO47sFlb99-26">
          <mxGeometry relative="1" as="geometry" />
        </mxCell>
        <mxCell id="uBCmYxYLdonOOEaDb1O1-1" style="edgeStyle=orthogonalEdgeStyle;rounded=0;orthogonalLoop=1;jettySize=auto;html=1;exitX=0;exitY=0.5;exitDx=0;exitDy=0;entryX=1;entryY=0.5;entryDx=0;entryDy=0;" edge="1" parent="1" source="llBoBKPekiVO47sFlb99-19" target="xL0K9Es_Q4u9pi8vGv8D-1">
          <mxGeometry relative="1" as="geometry">
            <Array as="points">
              <mxPoint x="720" y="410" />
              <mxPoint x="720" y="550" />
            </Array>
          </mxGeometry>
        </mxCell>
        <mxCell id="llBoBKPekiVO47sFlb99-19" value="Penawar Tertinggi / Pemenang" style="rhombus;whiteSpace=wrap;html=1;" vertex="1" parent="1">
          <mxGeometry x="750" y="370" width="80" height="80" as="geometry" />
        </mxCell>
        <mxCell id="llBoBKPekiVO47sFlb99-24" style="edgeStyle=orthogonalEdgeStyle;rounded=0;orthogonalLoop=1;jettySize=auto;html=1;exitX=0.5;exitY=1;exitDx=0;exitDy=0;entryX=0.5;entryY=0;entryDx=0;entryDy=0;" edge="1" parent="1" source="llBoBKPekiVO47sFlb99-21" target="llBoBKPekiVO47sFlb99-23">
          <mxGeometry relative="1" as="geometry" />
        </mxCell>
        <mxCell id="llBoBKPekiVO47sFlb99-32" style="edgeStyle=orthogonalEdgeStyle;rounded=0;orthogonalLoop=1;jettySize=auto;html=1;exitX=1;exitY=0.5;exitDx=0;exitDy=0;entryX=1;entryY=0.5;entryDx=0;entryDy=0;" edge="1" parent="1" source="llBoBKPekiVO47sFlb99-21" target="llBoBKPekiVO47sFlb99-25">
          <mxGeometry relative="1" as="geometry">
            <Array as="points">
              <mxPoint x="1040" y="410" />
              <mxPoint x="1040" y="840" />
            </Array>
          </mxGeometry>
        </mxCell>
        <mxCell id="llBoBKPekiVO47sFlb99-21" value="Pakai Tiket" style="rhombus;whiteSpace=wrap;html=1;" vertex="1" parent="1">
          <mxGeometry x="890" y="370" width="80" height="80" as="geometry" />
        </mxCell>
        <mxCell id="llBoBKPekiVO47sFlb99-34" style="edgeStyle=orthogonalEdgeStyle;rounded=0;orthogonalLoop=1;jettySize=auto;html=1;exitX=0.5;exitY=1;exitDx=0;exitDy=0;entryX=1;entryY=0.5;entryDx=0;entryDy=0;" edge="1" parent="1" source="llBoBKPekiVO47sFlb99-23" target="llBoBKPekiVO47sFlb99-25">
          <mxGeometry relative="1" as="geometry" />
        </mxCell>
        <mxCell id="llBoBKPekiVO47sFlb99-23" value="Deposit Tiket dikembalikan sesuai jumlah yang telah di ambil" style="rounded=0;whiteSpace=wrap;html=1;" vertex="1" parent="1">
          <mxGeometry x="870" y="584" width="120" height="60" as="geometry" />
        </mxCell>
        <mxCell id="llBoBKPekiVO47sFlb99-25" value="END" style="rounded=1;whiteSpace=wrap;html=1;" vertex="1" parent="1">
          <mxGeometry x="50" y="810" width="120" height="60" as="geometry" />
        </mxCell>
        <mxCell id="uBCmYxYLdonOOEaDb1O1-3" style="edgeStyle=orthogonalEdgeStyle;rounded=0;orthogonalLoop=1;jettySize=auto;html=1;exitX=0;exitY=0.5;exitDx=0;exitDy=0;entryX=0.5;entryY=0;entryDx=0;entryDy=0;" edge="1" parent="1" source="llBoBKPekiVO47sFlb99-26" target="llBoBKPekiVO47sFlb99-27">
          <mxGeometry relative="1" as="geometry">
            <Array as="points">
              <mxPoint x="550" y="410" />
              <mxPoint x="550" y="350" />
              <mxPoint x="460" y="350" />
            </Array>
          </mxGeometry>
        </mxCell>
        <mxCell id="llBoBKPekiVO47sFlb99-26" value="Persetujuan Penjual" style="rounded=0;whiteSpace=wrap;html=1;" vertex="1" parent="1">
          <mxGeometry x="570" y="380" width="120" height="60" as="geometry" />
        </mxCell>
        <mxCell id="uBCmYxYLdonOOEaDb1O1-5" style="edgeStyle=orthogonalEdgeStyle;rounded=0;orthogonalLoop=1;jettySize=auto;html=1;exitX=1;exitY=0.5;exitDx=0;exitDy=0;entryX=0;entryY=0.5;entryDx=0;entryDy=0;" edge="1" parent="1" source="llBoBKPekiVO47sFlb99-27" target="llBoBKPekiVO47sFlb99-21">
          <mxGeometry relative="1" as="geometry">
            <Array as="points">
              <mxPoint x="520" y="410" />
              <mxPoint x="520" y="500" />
              <mxPoint x="860" y="500" />
              <mxPoint x="860" y="410" />
            </Array>
          </mxGeometry>
        </mxCell>
        <mxCell id="uBCmYxYLdonOOEaDb1O1-13" style="edgeStyle=orthogonalEdgeStyle;rounded=0;orthogonalLoop=1;jettySize=auto;html=1;exitX=0;exitY=0.5;exitDx=0;exitDy=0;entryX=1;entryY=0.5;entryDx=0;entryDy=0;" edge="1" parent="1" source="llBoBKPekiVO47sFlb99-27" target="uBCmYxYLdonOOEaDb1O1-12">
          <mxGeometry relative="1" as="geometry" />
        </mxCell>
        <mxCell id="llBoBKPekiVO47sFlb99-27" value="Penjual menyetujui" style="rhombus;whiteSpace=wrap;html=1;" vertex="1" parent="1">
          <mxGeometry x="420" y="370" width="80" height="80" as="geometry" />
        </mxCell>
        <mxCell id="uBCmYxYLdonOOEaDb1O1-4" style="edgeStyle=orthogonalEdgeStyle;rounded=0;orthogonalLoop=1;jettySize=auto;html=1;exitX=0.5;exitY=0;exitDx=0;exitDy=0;entryX=0.5;entryY=1;entryDx=0;entryDy=0;" edge="1" parent="1" source="xL0K9Es_Q4u9pi8vGv8D-1" target="llBoBKPekiVO47sFlb99-27">
          <mxGeometry relative="1" as="geometry" />
        </mxCell>
        <mxCell id="uBCmYxYLdonOOEaDb1O1-11" style="edgeStyle=orthogonalEdgeStyle;rounded=0;orthogonalLoop=1;jettySize=auto;html=1;exitX=0.5;exitY=1;exitDx=0;exitDy=0;entryX=0.5;entryY=0;entryDx=0;entryDy=0;" edge="1" parent="1" source="xL0K9Es_Q4u9pi8vGv8D-1" target="uBCmYxYLdonOOEaDb1O1-6">
          <mxGeometry relative="1" as="geometry" />
        </mxCell>
        <mxCell id="xL0K9Es_Q4u9pi8vGv8D-1" value="Penawar Tertinggi membatalkan" style="rhombus;whiteSpace=wrap;html=1;" vertex="1" parent="1">
          <mxGeometry x="420" y="510" width="80" height="80" as="geometry" />
        </mxCell>
        <mxCell id="uBCmYxYLdonOOEaDb1O1-8" style="edgeStyle=orthogonalEdgeStyle;rounded=0;orthogonalLoop=1;jettySize=auto;html=1;exitX=1;exitY=0.5;exitDx=0;exitDy=0;entryX=0;entryY=0.5;entryDx=0;entryDy=0;" edge="1" parent="1" source="uBCmYxYLdonOOEaDb1O1-6" target="uBCmYxYLdonOOEaDb1O1-7">
          <mxGeometry relative="1" as="geometry" />
        </mxCell>
        <mxCell id="uBCmYxYLdonOOEaDb1O1-6" value="Deposit Tiket hangus sesuai jumlah yang telah di ambil" style="rounded=0;whiteSpace=wrap;html=1;" vertex="1" parent="1">
          <mxGeometry x="400" y="660" width="120" height="60" as="geometry" />
        </mxCell>
        <mxCell id="uBCmYxYLdonOOEaDb1O1-10" style="edgeStyle=orthogonalEdgeStyle;rounded=0;orthogonalLoop=1;jettySize=auto;html=1;exitX=0.5;exitY=1;exitDx=0;exitDy=0;entryX=1;entryY=0.5;entryDx=0;entryDy=0;" edge="1" parent="1" source="uBCmYxYLdonOOEaDb1O1-7" target="llBoBKPekiVO47sFlb99-25">
          <mxGeometry relative="1" as="geometry" />
        </mxCell>
        <mxCell id="uBCmYxYLdonOOEaDb1O1-7" value="Nominal Deposit Tiket dibagi Penjual 50% dan SiMotor 50%" style="rounded=0;whiteSpace=wrap;html=1;" vertex="1" parent="1">
          <mxGeometry x="630" y="660" width="120" height="60" as="geometry" />
        </mxCell>
        <mxCell id="uBCmYxYLdonOOEaDb1O1-16" style="edgeStyle=orthogonalEdgeStyle;rounded=0;orthogonalLoop=1;jettySize=auto;html=1;exitX=0;exitY=0.5;exitDx=0;exitDy=0;entryX=1;entryY=0.5;entryDx=0;entryDy=0;" edge="1" parent="1" source="uBCmYxYLdonOOEaDb1O1-12" target="uBCmYxYLdonOOEaDb1O1-15">
          <mxGeometry relative="1" as="geometry" />
        </mxCell>
        <mxCell id="uBCmYxYLdonOOEaDb1O1-12" value="Transaksi &amp;nbsp;pembayaran nominal dibuat sesuai nominal tertinggi" style="rounded=0;whiteSpace=wrap;html=1;" vertex="1" parent="1">
          <mxGeometry x="230" y="380" width="120" height="60" as="geometry" />
        </mxCell>
        <mxCell id="uBCmYxYLdonOOEaDb1O1-19" style="edgeStyle=orthogonalEdgeStyle;rounded=0;orthogonalLoop=1;jettySize=auto;html=1;exitX=0.5;exitY=1;exitDx=0;exitDy=0;entryX=0.5;entryY=0;entryDx=0;entryDy=0;" edge="1" parent="1" source="uBCmYxYLdonOOEaDb1O1-15" target="uBCmYxYLdonOOEaDb1O1-17">
          <mxGeometry relative="1" as="geometry" />
        </mxCell>
        <mxCell id="uBCmYxYLdonOOEaDb1O1-15" value="Maksimal Pembayaran 3 hari" style="rounded=0;whiteSpace=wrap;html=1;" vertex="1" parent="1">
          <mxGeometry x="50" y="380" width="120" height="60" as="geometry" />
        </mxCell>
        <mxCell id="uBCmYxYLdonOOEaDb1O1-18" style="edgeStyle=orthogonalEdgeStyle;rounded=0;orthogonalLoop=1;jettySize=auto;html=1;exitX=1;exitY=0.5;exitDx=0;exitDy=0;entryX=0;entryY=0.5;entryDx=0;entryDy=0;" edge="1" parent="1" source="uBCmYxYLdonOOEaDb1O1-17" target="llBoBKPekiVO47sFlb99-21">
          <mxGeometry relative="1" as="geometry">
            <Array as="points">
              <mxPoint x="190" y="530" />
              <mxPoint x="190" y="630" />
              <mxPoint x="860" y="630" />
              <mxPoint x="860" y="410" />
            </Array>
          </mxGeometry>
        </mxCell>
        <mxCell id="uBCmYxYLdonOOEaDb1O1-21" style="edgeStyle=orthogonalEdgeStyle;rounded=0;orthogonalLoop=1;jettySize=auto;html=1;exitX=0.5;exitY=1;exitDx=0;exitDy=0;entryX=0.5;entryY=0;entryDx=0;entryDy=0;" edge="1" parent="1" source="uBCmYxYLdonOOEaDb1O1-17" target="uBCmYxYLdonOOEaDb1O1-20">
          <mxGeometry relative="1" as="geometry" />
        </mxCell>
        <mxCell id="uBCmYxYLdonOOEaDb1O1-17" value="Pembeli sudah melakukan pembayaran" style="rhombus;whiteSpace=wrap;html=1;" vertex="1" parent="1">
          <mxGeometry x="70" y="490" width="80" height="80" as="geometry" />
        </mxCell>
        <mxCell id="uBCmYxYLdonOOEaDb1O1-22" style="edgeStyle=orthogonalEdgeStyle;rounded=0;orthogonalLoop=1;jettySize=auto;html=1;exitX=0;exitY=0.5;exitDx=0;exitDy=0;entryX=0;entryY=0.5;entryDx=0;entryDy=0;" edge="1" parent="1" source="uBCmYxYLdonOOEaDb1O1-20" target="uBCmYxYLdonOOEaDb1O1-17">
          <mxGeometry relative="1" as="geometry" />
        </mxCell>
        <mxCell id="JK8oTeQB-67KrCrylu6K-16" value="N" style="edgeLabel;html=1;align=center;verticalAlign=middle;resizable=0;points=[];" vertex="1" connectable="0" parent="uBCmYxYLdonOOEaDb1O1-22">
          <mxGeometry x="-0.4297" y="-11" relative="1" as="geometry">
            <mxPoint as="offset" />
          </mxGeometry>
        </mxCell>
        <mxCell id="uBCmYxYLdonOOEaDb1O1-23" style="edgeStyle=orthogonalEdgeStyle;rounded=0;orthogonalLoop=1;jettySize=auto;html=1;exitX=1;exitY=0.5;exitDx=0;exitDy=0;entryX=0;entryY=0.5;entryDx=0;entryDy=0;" edge="1" parent="1" source="uBCmYxYLdonOOEaDb1O1-20" target="uBCmYxYLdonOOEaDb1O1-6">
          <mxGeometry relative="1" as="geometry" />
        </mxCell>
        <mxCell id="uBCmYxYLdonOOEaDb1O1-20" value="Batas Pembayaran melebihi 3 hari" style="rhombus;whiteSpace=wrap;html=1;" vertex="1" parent="1">
          <mxGeometry x="70" y="651" width="80" height="80" as="geometry" />
        </mxCell>
        <mxCell id="JK8oTeQB-67KrCrylu6K-1" value="Y" style="text;html=1;align=center;verticalAlign=middle;resizable=0;points=[];autosize=1;strokeColor=none;fillColor=none;" vertex="1" parent="1">
          <mxGeometry x="305" y="175" width="30" height="30" as="geometry" />
        </mxCell>
        <mxCell id="JK8oTeQB-67KrCrylu6K-2" value="N" style="text;html=1;align=center;verticalAlign=middle;resizable=0;points=[];autosize=1;strokeColor=none;fillColor=none;" vertex="1" parent="1">
          <mxGeometry x="425" y="235" width="30" height="30" as="geometry" />
        </mxCell>
        <mxCell id="JK8oTeQB-67KrCrylu6K-3" value="N" style="text;html=1;align=center;verticalAlign=middle;resizable=0;points=[];autosize=1;strokeColor=none;fillColor=none;" vertex="1" parent="1">
          <mxGeometry x="415" y="65" width="30" height="30" as="geometry" />
        </mxCell>
        <mxCell id="JK8oTeQB-67KrCrylu6K-4" value="Y" style="text;html=1;align=center;verticalAlign=middle;resizable=0;points=[];autosize=1;strokeColor=none;fillColor=none;" vertex="1" parent="1">
          <mxGeometry x="485" y="105" width="30" height="30" as="geometry" />
        </mxCell>
        <mxCell id="JK8oTeQB-67KrCrylu6K-5" value="N" style="text;html=1;align=center;verticalAlign=middle;resizable=0;points=[];autosize=1;strokeColor=none;fillColor=none;" vertex="1" parent="1">
          <mxGeometry x="845" y="375" width="30" height="30" as="geometry" />
        </mxCell>
        <mxCell id="JK8oTeQB-67KrCrylu6K-6" value="Y" style="text;html=1;align=center;verticalAlign=middle;resizable=0;points=[];autosize=1;strokeColor=none;fillColor=none;" vertex="1" parent="1">
          <mxGeometry x="935" y="505" width="30" height="30" as="geometry" />
        </mxCell>
        <mxCell id="JK8oTeQB-67KrCrylu6K-7" value="N" style="text;html=1;align=center;verticalAlign=middle;resizable=0;points=[];autosize=1;strokeColor=none;fillColor=none;" vertex="1" parent="1">
          <mxGeometry x="1005" y="365" width="30" height="30" as="geometry" />
        </mxCell>
        <mxCell id="JK8oTeQB-67KrCrylu6K-8" value="Y" style="text;html=1;align=center;verticalAlign=middle;resizable=0;points=[];autosize=1;strokeColor=none;fillColor=none;" vertex="1" parent="1">
          <mxGeometry x="705" y="365" width="30" height="30" as="geometry" />
        </mxCell>
        <mxCell id="JK8oTeQB-67KrCrylu6K-9" value="N" style="text;html=1;align=center;verticalAlign=middle;resizable=0;points=[];autosize=1;strokeColor=none;fillColor=none;" vertex="1" parent="1">
          <mxGeometry x="465" y="475" width="30" height="30" as="geometry" />
        </mxCell>
        <mxCell id="JK8oTeQB-67KrCrylu6K-11" value="N" style="text;html=1;align=center;verticalAlign=middle;resizable=0;points=[];autosize=1;strokeColor=none;fillColor=none;" vertex="1" parent="1">
          <mxGeometry x="515" y="415" width="30" height="30" as="geometry" />
        </mxCell>
        <mxCell id="JK8oTeQB-67KrCrylu6K-13" value="Y" style="text;html=1;align=center;verticalAlign=middle;resizable=0;points=[];autosize=1;strokeColor=none;fillColor=none;" vertex="1" parent="1">
          <mxGeometry x="395" y="385" width="30" height="30" as="geometry" />
        </mxCell>
        <mxCell id="JK8oTeQB-67KrCrylu6K-14" value="Y" style="text;html=1;align=center;verticalAlign=middle;resizable=0;points=[];autosize=1;strokeColor=none;fillColor=none;" vertex="1" parent="1">
          <mxGeometry x="155" y="505" width="30" height="30" as="geometry" />
        </mxCell>
        <mxCell id="JK8oTeQB-67KrCrylu6K-15" value="N" style="text;html=1;align=center;verticalAlign=middle;resizable=0;points=[];autosize=1;strokeColor=none;fillColor=none;" vertex="1" parent="1">
          <mxGeometry x="115" y="575" width="30" height="30" as="geometry" />
        </mxCell>
        <mxCell id="JK8oTeQB-67KrCrylu6K-17" value="Y" style="text;html=1;align=center;verticalAlign=middle;resizable=0;points=[];autosize=1;strokeColor=none;fillColor=none;" vertex="1" parent="1">
          <mxGeometry x="165" y="665" width="30" height="30" as="geometry" />
        </mxCell>
        <mxCell id="JK8oTeQB-67KrCrylu6K-18" value="Y" style="text;html=1;align=center;verticalAlign=middle;resizable=0;points=[];autosize=1;strokeColor=none;fillColor=none;" vertex="1" parent="1">
          <mxGeometry x="455" y="585" width="30" height="30" as="geometry" />
        </mxCell>
      </root>
    </mxGraphModel>
  </diagram>
  <diagram id="3kCaw50cBxVeKUUcECqg" name="Tiket Kadaluarsa">
    <mxGraphModel dx="891" dy="716" grid="1" gridSize="10" guides="1" tooltips="1" connect="1" arrows="1" fold="1" page="1" pageScale="1" pageWidth="827" pageHeight="1169" math="0" shadow="0">
      <root>
        <mxCell id="0" />
        <mxCell id="1" parent="0" />
        <mxCell id="lzwqMlvge4nA-h1Jtft9-4" style="edgeStyle=orthogonalEdgeStyle;rounded=0;orthogonalLoop=1;jettySize=auto;html=1;exitX=0.5;exitY=1;exitDx=0;exitDy=0;entryX=0.5;entryY=0;entryDx=0;entryDy=0;" edge="1" parent="1" source="lzwqMlvge4nA-h1Jtft9-1" target="lzwqMlvge4nA-h1Jtft9-2">
          <mxGeometry relative="1" as="geometry" />
        </mxCell>
        <mxCell id="lzwqMlvge4nA-h1Jtft9-1" value="START" style="rounded=1;whiteSpace=wrap;html=1;" vertex="1" parent="1">
          <mxGeometry x="280" y="120" width="120" height="60" as="geometry" />
        </mxCell>
        <mxCell id="lzwqMlvge4nA-h1Jtft9-5" style="edgeStyle=orthogonalEdgeStyle;rounded=0;orthogonalLoop=1;jettySize=auto;html=1;exitX=0.5;exitY=1;exitDx=0;exitDy=0;entryX=0.5;entryY=0;entryDx=0;entryDy=0;" edge="1" parent="1" source="lzwqMlvge4nA-h1Jtft9-2" target="lzwqMlvge4nA-h1Jtft9-3">
          <mxGeometry relative="1" as="geometry" />
        </mxCell>
        <mxCell id="neTYgEROqqJmrB3Wi_jq-1" style="edgeStyle=orthogonalEdgeStyle;rounded=0;orthogonalLoop=1;jettySize=auto;html=1;exitX=1;exitY=0.5;exitDx=0;exitDy=0;entryX=0;entryY=0.5;entryDx=0;entryDy=0;" edge="1" parent="1" source="lzwqMlvge4nA-h1Jtft9-2" target="lzwqMlvge4nA-h1Jtft9-6">
          <mxGeometry relative="1" as="geometry" />
        </mxCell>
        <mxCell id="lzwqMlvge4nA-h1Jtft9-2" value="Tiket pengguna melebihi masa kadaluarsa" style="rhombus;whiteSpace=wrap;html=1;" vertex="1" parent="1">
          <mxGeometry x="300" y="250" width="80" height="80" as="geometry" />
        </mxCell>
        <mxCell id="lzwqMlvge4nA-h1Jtft9-3" value="END" style="rounded=1;whiteSpace=wrap;html=1;" vertex="1" parent="1">
          <mxGeometry x="280" y="440" width="120" height="60" as="geometry" />
        </mxCell>
        <mxCell id="neTYgEROqqJmrB3Wi_jq-2" style="edgeStyle=orthogonalEdgeStyle;rounded=0;orthogonalLoop=1;jettySize=auto;html=1;exitX=1;exitY=0.5;exitDx=0;exitDy=0;entryX=0;entryY=0.5;entryDx=0;entryDy=0;" edge="1" parent="1" source="lzwqMlvge4nA-h1Jtft9-6" target="lzwqMlvge4nA-h1Jtft9-7">
          <mxGeometry relative="1" as="geometry" />
        </mxCell>
        <mxCell id="lzwqMlvge4nA-h1Jtft9-6" value="Tiket hangus" style="rounded=0;whiteSpace=wrap;html=1;" vertex="1" parent="1">
          <mxGeometry x="414" y="260" width="120" height="60" as="geometry" />
        </mxCell>
        <mxCell id="neTYgEROqqJmrB3Wi_jq-3" style="edgeStyle=orthogonalEdgeStyle;rounded=0;orthogonalLoop=1;jettySize=auto;html=1;exitX=0.5;exitY=1;exitDx=0;exitDy=0;entryX=1;entryY=0.5;entryDx=0;entryDy=0;" edge="1" parent="1" source="lzwqMlvge4nA-h1Jtft9-7" target="lzwqMlvge4nA-h1Jtft9-3">
          <mxGeometry relative="1" as="geometry" />
        </mxCell>
        <mxCell id="lzwqMlvge4nA-h1Jtft9-7" value="Nominal harga tiket &amp;nbsp;yang hangus menjadi hak milik SiMotor" style="rounded=0;whiteSpace=wrap;html=1;" vertex="1" parent="1">
          <mxGeometry x="570" y="260" width="120" height="60" as="geometry" />
        </mxCell>
      </root>
    </mxGraphModel>
  </diagram>
  <diagram id="bh8bVOCLe0126QJLCiSi" name="IKLAN BARIS &amp; AKSESORIS">
    <mxGraphModel dx="891" dy="716" grid="1" gridSize="10" guides="1" tooltips="1" connect="1" arrows="1" fold="1" page="1" pageScale="1" pageWidth="827" pageHeight="1169" math="0" shadow="0">
      <root>
        <mxCell id="0" />
        <mxCell id="1" parent="0" />
        <mxCell id="Swc0mb9wbhrWCpLMDdji-2" style="edgeStyle=orthogonalEdgeStyle;rounded=0;orthogonalLoop=1;jettySize=auto;html=1;exitX=0.5;exitY=1;exitDx=0;exitDy=0;entryX=0.5;entryY=0;entryDx=0;entryDy=0;" edge="1" parent="1" source="mfmCjwoBWodejJNNPnYa-1" target="Swc0mb9wbhrWCpLMDdji-1">
          <mxGeometry relative="1" as="geometry" />
        </mxCell>
        <mxCell id="mfmCjwoBWodejJNNPnYa-1" value="START" style="rounded=1;whiteSpace=wrap;html=1;" vertex="1" parent="1">
          <mxGeometry x="120" y="110" width="120" height="60" as="geometry" />
        </mxCell>
        <mxCell id="Swc0mb9wbhrWCpLMDdji-6" style="edgeStyle=orthogonalEdgeStyle;rounded=0;orthogonalLoop=1;jettySize=auto;html=1;exitX=1;exitY=0.5;exitDx=0;exitDy=0;entryX=0;entryY=0.5;entryDx=0;entryDy=0;" edge="1" parent="1" source="Swc0mb9wbhrWCpLMDdji-1" target="Swc0mb9wbhrWCpLMDdji-5">
          <mxGeometry relative="1" as="geometry" />
        </mxCell>
        <mxCell id="Swc0mb9wbhrWCpLMDdji-1" value="Pesan / Beli Produk" style="rounded=0;whiteSpace=wrap;html=1;" vertex="1" parent="1">
          <mxGeometry x="120" y="250" width="120" height="60" as="geometry" />
        </mxCell>
        <mxCell id="Swc0mb9wbhrWCpLMDdji-13" style="edgeStyle=orthogonalEdgeStyle;rounded=0;orthogonalLoop=1;jettySize=auto;html=1;exitX=0.5;exitY=1;exitDx=0;exitDy=0;entryX=0.5;entryY=0;entryDx=0;entryDy=0;" edge="1" parent="1" source="Swc0mb9wbhrWCpLMDdji-3" target="Swc0mb9wbhrWCpLMDdji-12">
          <mxGeometry relative="1" as="geometry" />
        </mxCell>
        <mxCell id="Swc0mb9wbhrWCpLMDdji-3" value="Pilih metode pengirman barang" style="shape=parallelogram;perimeter=parallelogramPerimeter;whiteSpace=wrap;html=1;fixedSize=1;" vertex="1" parent="1">
          <mxGeometry x="520" y="250" width="120" height="60" as="geometry" />
        </mxCell>
        <mxCell id="Swc0mb9wbhrWCpLMDdji-7" style="edgeStyle=orthogonalEdgeStyle;rounded=0;orthogonalLoop=1;jettySize=auto;html=1;exitX=1;exitY=0.5;exitDx=0;exitDy=0;entryX=0;entryY=0.5;entryDx=0;entryDy=0;" edge="1" parent="1" source="Swc0mb9wbhrWCpLMDdji-5" target="Swc0mb9wbhrWCpLMDdji-3">
          <mxGeometry relative="1" as="geometry" />
        </mxCell>
        <mxCell id="Swc0mb9wbhrWCpLMDdji-9" style="edgeStyle=orthogonalEdgeStyle;rounded=0;orthogonalLoop=1;jettySize=auto;html=1;exitX=0.5;exitY=1;exitDx=0;exitDy=0;entryX=0.5;entryY=0;entryDx=0;entryDy=0;" edge="1" parent="1" source="Swc0mb9wbhrWCpLMDdji-5" target="Swc0mb9wbhrWCpLMDdji-8">
          <mxGeometry relative="1" as="geometry" />
        </mxCell>
        <mxCell id="Swc0mb9wbhrWCpLMDdji-5" value="Produk sudah dipesan / terjual" style="rhombus;whiteSpace=wrap;html=1;" vertex="1" parent="1">
          <mxGeometry x="334" y="240" width="80" height="80" as="geometry" />
        </mxCell>
        <mxCell id="Swc0mb9wbhrWCpLMDdji-11" style="edgeStyle=orthogonalEdgeStyle;rounded=0;orthogonalLoop=1;jettySize=auto;html=1;exitX=0.5;exitY=1;exitDx=0;exitDy=0;entryX=1;entryY=0.5;entryDx=0;entryDy=0;" edge="1" parent="1" source="Swc0mb9wbhrWCpLMDdji-8" target="Swc0mb9wbhrWCpLMDdji-10">
          <mxGeometry relative="1" as="geometry" />
        </mxCell>
        <mxCell id="Swc0mb9wbhrWCpLMDdji-8" value="Pemberitahuan kepada pembeli tidak dapat di lanjutkan proses pembelian" style="rounded=0;whiteSpace=wrap;html=1;" vertex="1" parent="1">
          <mxGeometry x="314" y="370" width="120" height="60" as="geometry" />
        </mxCell>
        <mxCell id="Swc0mb9wbhrWCpLMDdji-10" value="END" style="rounded=1;whiteSpace=wrap;html=1;" vertex="1" parent="1">
          <mxGeometry x="120" y="480" width="120" height="60" as="geometry" />
        </mxCell>
        <mxCell id="Fdw2VdHsIUwwx7BJ-GJl-11" style="edgeStyle=orthogonalEdgeStyle;rounded=0;orthogonalLoop=1;jettySize=auto;html=1;exitX=1;exitY=0.5;exitDx=0;exitDy=0;entryX=0;entryY=0.5;entryDx=0;entryDy=0;" edge="1" parent="1" source="Swc0mb9wbhrWCpLMDdji-12" target="Fdw2VdHsIUwwx7BJ-GJl-2">
          <mxGeometry relative="1" as="geometry" />
        </mxCell>
        <mxCell id="Swc0mb9wbhrWCpLMDdji-12" value="Transaksi Pembayaran" style="rounded=0;whiteSpace=wrap;html=1;" vertex="1" parent="1">
          <mxGeometry x="520" y="370" width="120" height="60" as="geometry" />
        </mxCell>
        <mxCell id="Fdw2VdHsIUwwx7BJ-GJl-1" style="edgeStyle=orthogonalEdgeStyle;rounded=0;orthogonalLoop=1;jettySize=auto;html=1;exitX=0.5;exitY=1;exitDx=0;exitDy=0;entryX=0.5;entryY=0;entryDx=0;entryDy=0;" edge="1" parent="1" source="Fdw2VdHsIUwwx7BJ-GJl-2" target="Fdw2VdHsIUwwx7BJ-GJl-4">
          <mxGeometry relative="1" as="geometry" />
        </mxCell>
        <mxCell id="Fdw2VdHsIUwwx7BJ-GJl-2" value="Maksimal Pembayaran 3 hari" style="rounded=0;whiteSpace=wrap;html=1;" vertex="1" parent="1">
          <mxGeometry x="690" y="370" width="120" height="60" as="geometry" />
        </mxCell>
        <mxCell id="Fdw2VdHsIUwwx7BJ-GJl-3" style="edgeStyle=orthogonalEdgeStyle;rounded=0;orthogonalLoop=1;jettySize=auto;html=1;exitX=0.5;exitY=1;exitDx=0;exitDy=0;entryX=0.5;entryY=0;entryDx=0;entryDy=0;" edge="1" parent="1" source="Fdw2VdHsIUwwx7BJ-GJl-4" target="Fdw2VdHsIUwwx7BJ-GJl-7">
          <mxGeometry relative="1" as="geometry" />
        </mxCell>
        <mxCell id="Fdw2VdHsIUwwx7BJ-GJl-4" value="Pembeli sudah melakukan pembayaran" style="rhombus;whiteSpace=wrap;html=1;" vertex="1" parent="1">
          <mxGeometry x="710" y="480" width="80" height="80" as="geometry" />
        </mxCell>
        <mxCell id="Fdw2VdHsIUwwx7BJ-GJl-5" style="edgeStyle=orthogonalEdgeStyle;rounded=0;orthogonalLoop=1;jettySize=auto;html=1;exitX=0;exitY=0.5;exitDx=0;exitDy=0;entryX=0;entryY=0.5;entryDx=0;entryDy=0;" edge="1" parent="1" source="Fdw2VdHsIUwwx7BJ-GJl-7" target="Fdw2VdHsIUwwx7BJ-GJl-4">
          <mxGeometry relative="1" as="geometry" />
        </mxCell>
        <mxCell id="Fdw2VdHsIUwwx7BJ-GJl-6" value="N" style="edgeLabel;html=1;align=center;verticalAlign=middle;resizable=0;points=[];" vertex="1" connectable="0" parent="Fdw2VdHsIUwwx7BJ-GJl-5">
          <mxGeometry x="-0.4297" y="-11" relative="1" as="geometry">
            <mxPoint as="offset" />
          </mxGeometry>
        </mxCell>
        <mxCell id="Fdw2VdHsIUwwx7BJ-GJl-7" value="Batas Pembayaran melebihi 3 hari" style="rhombus;whiteSpace=wrap;html=1;" vertex="1" parent="1">
          <mxGeometry x="710" y="641" width="80" height="80" as="geometry" />
        </mxCell>
        <mxCell id="Fdw2VdHsIUwwx7BJ-GJl-8" value="Y" style="text;html=1;align=center;verticalAlign=middle;resizable=0;points=[];autosize=1;strokeColor=none;fillColor=none;" vertex="1" parent="1">
          <mxGeometry x="795" y="495" width="30" height="30" as="geometry" />
        </mxCell>
        <mxCell id="Fdw2VdHsIUwwx7BJ-GJl-9" value="N" style="text;html=1;align=center;verticalAlign=middle;resizable=0;points=[];autosize=1;strokeColor=none;fillColor=none;" vertex="1" parent="1">
          <mxGeometry x="755" y="565" width="30" height="30" as="geometry" />
        </mxCell>
        <mxCell id="Fdw2VdHsIUwwx7BJ-GJl-10" value="Y" style="text;html=1;align=center;verticalAlign=middle;resizable=0;points=[];autosize=1;strokeColor=none;fillColor=none;" vertex="1" parent="1">
          <mxGeometry x="805" y="655" width="30" height="30" as="geometry" />
        </mxCell>
      </root>
    </mxGraphModel>
  </diagram>
</mxfile>
